<?xml version="1.0" encoding="UTF-8" standalone="no"?>
<!-- Created with Inkscape (http://www.inkscape.org/) -->

<svg
   xmlns:dc="http://purl.org/dc/elements/1.1/"
   xmlns:cc="http://creativecommons.org/ns#"
   xmlns:rdf="http://www.w3.org/1999/02/22-rdf-syntax-ns#"
   xmlns:svg="http://www.w3.org/2000/svg"
   xmlns="http://www.w3.org/2000/svg"
   xmlns:sodipodi="http://sodipodi.sourceforge.net/DTD/sodipodi-0.dtd"
   xmlns:inkscape="http://www.inkscape.org/namespaces/inkscape"
   width="59.628571mm"
   height="59.620747mm"
   viewBox="0 0 59.628571 59.620747"
   version="1.1"
   id="svg1586"
   inkscape:version="0.92.3 (2405546, 2018-03-11)"
   sodipodi:docname="deltri-sticker-bonus-video.svg">
  <defs
     id="defs1580" />
  <sodipodi:namedview
     id="base"
     pagecolor="#ffffff"
     bordercolor="#666666"
     borderopacity="1.0"
     inkscape:pageopacity="0.0"
     inkscape:pageshadow="2"
     inkscape:zoom="1.4"
     inkscape:cx="239.45905"
     inkscape:cy="0.13135922"
     inkscape:document-units="mm"
     inkscape:current-layer="layer1"
     showgrid="false"
     fit-margin-top="0"
     fit-margin-left="0"
     fit-margin-right="0"
     fit-margin-bottom="0"
     inkscape:window-width="1920"
     inkscape:window-height="1052"
     inkscape:window-x="1920"
     inkscape:window-y="0"
     inkscape:window-maximized="1" />
  <metadata
     id="metadata1583">
    <rdf:RDF>
      <cc:Work
         rdf:about="">
        <dc:format>image/svg+xml</dc:format>
        <dc:type
           rdf:resource="http://purl.org/dc/dcmitype/StillImage" />
        <dc:title></dc:title>
      </cc:Work>
    </rdf:RDF>
  </metadata>
  <g
     inkscape:label="Calque 1"
     inkscape:groupmode="layer"
     id="layer1"
     transform="translate(199.81757,124.12535)">
    <g
       style="display:inline"
       id="g1022"
       transform="translate(-284.08725,-216.90974)">
      <path
         inkscape:export-ydpi="96"
         inkscape:export-xdpi="96"
         inkscape:export-filename="/home/paodweb/Documents/tri/challenge/images/sticker-deltri-bonus-video.png"
         style="display:inline;fill:#808080;fill-opacity:1;stroke:none;stroke-width:1.05499995;stroke-linecap:butt;stroke-linejoin:miter;stroke-miterlimit:4;stroke-dasharray:none;stroke-opacity:1"
         d="m 84.269699,122.48167 c -0.007,2.59492 1.95936,2.85171 2.53119,5.7499 0.5238,2.65475 -1.111,2.78896 -0.22141,5.39091 0.77336,2.26198 2.70457,2.09981 3.945827,3.75683 1.65563,2.21021 1.10897,4.44609 2.43588,5.91596 1.59936,1.77167 3.625867,1.07233 5.658177,2.44538 1.996487,1.34886 1.585847,3.24653 4.012637,4.1787 2.37429,0.91201 3.63143,-0.54525 5.93692,0.0115 2.30549,0.55672 3.06138,2.33665 5.30313,2.46831 2.25087,0.13221 3.37765,-1.96881 5.63526,-2.42441 2.25761,-0.45561 4.1237,0.77415 6.59362,-0.31117 1.97957,-0.86984 1.5339,-2.49329 3.72245,-4.04506 2.18854,-1.55177 4.25452,-0.87664 5.75939,-2.67073 1.42707,-1.70134 0.0568,-2.89624 1.84599,-5.12365 1.48399,-1.84741 3.32913,-1.91671 4.21309,-4.58353 0.67767,-2.04448 -1.06069,-2.53727 -0.27873,-5.4538 0.78196,-2.91653 2.53513,-2.20498 2.53513,-5.1505 0,-2.47781 -1.80537,-2.94184 -2.34614,-5.30117 -0.6426,-2.80358 0.56639,-4.41201 -0.31116,-6.4256 -0.90242,-2.07065 -2.46839,-1.8055 -3.98022,-3.92289 -1.49843,-2.09864 -0.64524,-3.54689 -2.09033,-5.25925 -1.37899,-1.63404 -3.0677,-0.74449 -5.52455,-2.445377 -2.45684,-1.7009 -1.42412,-3.02381 -3.99168,-4.03557 -2.7801,-1.095517 -2.03952,0.93374 -5.64672,0.0553 -3.80916,-0.927567 -3.09419,-2.405967 -5.65818,-2.512197 -2.76961,-0.11475 -2.47977,1.71235 -5.30313,2.390017 -3.08053,0.7394 -4.34712,-0.909007 -6.55924,0.0783 -2.29911,1.02613 -1.86165,2.95966 -3.835107,4.26845 -2.01206,1.334377 -4.164537,0.626607 -5.669647,2.168617 -1.79064,1.83453 -0.59884,2.85687 -1.77917,4.99001 -1.27914,2.31169 -3.517557,1.97859 -4.512787,4.27041 -1.11102,2.55844 0.58769,3.04701 0.12217,5.725 -0.4843,2.78597 -2.53568,3.39757 -2.54266,5.80132 z"
         id="path995"
         inkscape:connector-curvature="0"
         sodipodi:nodetypes="ssssssszszszssszsssssssssssssssss" />
      <text
         inkscape:export-ydpi="96"
         inkscape:export-xdpi="96"
         inkscape:export-filename="/home/paodweb/Documents/tri/challenge/images/sticker-deltri-bonus-video.png"
         id="text1001"
         y="126.04987"
         x="114.00294"
         style="font-style:normal;font-weight:normal;font-size:10.01142502px;line-height:1.25;font-family:sans-serif;letter-spacing:0px;word-spacing:0px;display:inline;fill:#000000;fill-opacity:1;stroke:none;stroke-width:0.25028566"
         xml:space="preserve"><tspan
           style="font-style:normal;font-variant:normal;font-weight:bold;font-stretch:normal;font-size:11.06164265px;line-height:1.25;font-family:Padauk;-inkscape-font-specification:'Padauk Bold';text-align:center;text-anchor:middle;fill:#ffffff;fill-opacity:1;stroke-width:0.25028566"
           y="126.04987"
           x="114.00294"
           sodipodi:role="line"
           id="tspan999"><tspan
             dy="0"
             id="tspan997"
             style="font-style:normal;font-variant:normal;font-weight:bold;font-stretch:normal;font-size:11.06164265px;line-height:1.25;font-family:Padauk;-inkscape-font-specification:'Padauk Bold';text-align:center;text-anchor:middle;fill:#ffffff;fill-opacity:1;stroke-width:0.25028566">BONUS</tspan></tspan></text>
      <text
         xml:space="preserve"
         style="font-style:normal;font-weight:normal;font-size:5.76351976px;line-height:1.25;font-family:sans-serif;letter-spacing:0px;word-spacing:0px;display:inline;fill:#000000;fill-opacity:1;stroke:none;stroke-width:0.144088"
         x="114.21145"
         y="135.40912"
         id="text1005"
         inkscape:export-filename="/home/paodweb/Documents/tri/challenge/images/sticker-deltri-bonus-video.png"
         inkscape:export-xdpi="96"
         inkscape:export-ydpi="96"><tspan
           id="tspan1003"
           sodipodi:role="line"
           x="114.21145"
           y="135.40912"
           style="font-style:normal;font-variant:normal;font-weight:bold;font-stretch:normal;font-size:6.36812401px;line-height:1.25;font-family:Padauk;-inkscape-font-specification:'Padauk Bold';text-align:center;text-anchor:middle;fill:#ffffff;fill-opacity:1;stroke-width:0.144088">VIDEO</tspan></text>
      <circle
         inkscape:export-ydpi="96"
         inkscape:export-xdpi="96"
         inkscape:export-filename="/home/paodweb/Documents/tri/challenge/images/sticker-deltri-bonus-video.png"
         style="display:inline;opacity:1;fill:none;fill-opacity:1;stroke:#ffffff;stroke-width:1.35500002;stroke-linecap:round;stroke-linejoin:round;stroke-miterlimit:4;stroke-dasharray:none;stroke-opacity:1"
         id="circle1007"
         cx="114.08396"
         cy="122.58032"
         r="24.254707" />
      <text
         inkscape:export-ydpi="96"
         inkscape:export-xdpi="96"
         inkscape:export-filename="/home/paodweb/Documents/tri/challenge/images/sticker-deltri-bonus-video.png"
         xml:space="preserve"
         style="font-style:normal;font-variant:normal;font-weight:normal;font-stretch:normal;font-size:3.88902044px;line-height:1.25;font-family:'Mukti Narrow';-inkscape-font-specification:'Mukti Narrow';letter-spacing:0px;word-spacing:0px;fill:#ffffff;fill-opacity:1;stroke:none;stroke-width:0.09722551"
         x="104.55586"
         y="112.60616"
         id="text1011"><tspan
           sodipodi:role="line"
           id="tspan1009"
           x="104.55586"
           y="112.60616"
           style="font-style:normal;font-variant:normal;font-weight:bold;font-stretch:normal;font-size:3.6297524px;font-family:Padauk;-inkscape-font-specification:'Padauk Bold';fill:#ffffff;fill-opacity:1;stroke-width:0.09722551">200 POINTS</tspan></text>
    </g>
  </g>
</svg>
