<?xml version="1.0" encoding="UTF-8" standalone="no"?>
<!-- Created with Inkscape (http://www.inkscape.org/) -->

<svg
   xmlns:dc="http://purl.org/dc/elements/1.1/"
   xmlns:cc="http://creativecommons.org/ns#"
   xmlns:rdf="http://www.w3.org/1999/02/22-rdf-syntax-ns#"
   xmlns:svg="http://www.w3.org/2000/svg"
   xmlns="http://www.w3.org/2000/svg"
   xmlns:sodipodi="http://sodipodi.sourceforge.net/DTD/sodipodi-0.dtd"
   xmlns:inkscape="http://www.inkscape.org/namespaces/inkscape"
   width="59.628544mm"
   height="59.620747mm"
   viewBox="0 0 59.628544 59.620747"
   version="1.1"
   id="svg1586"
   inkscape:version="0.92.3 (2405546, 2018-03-11)"
   sodipodi:docname="deltri-sticker-bonus-photo.svg">
  <defs
     id="defs1580" />
  <sodipodi:namedview
     id="base"
     pagecolor="#ffffff"
     bordercolor="#666666"
     borderopacity="1.0"
     inkscape:pageopacity="0.0"
     inkscape:pageshadow="2"
     inkscape:zoom="1.4"
     inkscape:cx="248.57137"
     inkscape:cy="-44.3429"
     inkscape:document-units="mm"
     inkscape:current-layer="layer1"
     showgrid="false"
     fit-margin-top="0"
     fit-margin-left="0"
     fit-margin-right="0"
     fit-margin-bottom="0"
     inkscape:window-width="1920"
     inkscape:window-height="1052"
     inkscape:window-x="1920"
     inkscape:window-y="0"
     inkscape:window-maximized="1" />
  <metadata
     id="metadata1583">
    <rdf:RDF>
      <cc:Work
         rdf:about="">
        <dc:format>image/svg+xml</dc:format>
        <dc:type
           rdf:resource="http://purl.org/dc/dcmitype/StillImage" />
        <dc:title></dc:title>
      </cc:Work>
    </rdf:RDF>
  </metadata>
  <g
     inkscape:label="Calque 1"
     inkscape:groupmode="layer"
     id="layer1"
     transform="translate(165.27858,77.017572)">
    <g
       style="display:inline"
       id="g1040"
       transform="translate(-175.46492,-169.80196)">
      <path
         sodipodi:nodetypes="ssssssszszszssszsssssssssssssssss"
         inkscape:connector-curvature="0"
         id="path967"
         d="m 10.186361,122.48167 c -0.007,2.59492 1.95936,2.85171 2.53119,5.7499 0.5238,2.65475 -1.111,2.78896 -0.22141,5.39091 0.77336,2.26198 2.70457,2.09981 3.945827,3.75683 1.65563,2.21021 1.10897,4.44609 2.43588,5.91596 1.59936,1.77167 3.625867,1.07233 5.658177,2.44538 1.996487,1.34886 1.585847,3.24653 4.012637,4.1787 2.37429,0.91201 3.631427,-0.54525 5.936917,0.0115 2.305487,0.55672 3.061377,2.33665 5.303127,2.46831 2.250867,0.13221 3.377647,-1.96881 5.635257,-2.42441 2.257607,-0.45561 4.123697,0.77415 6.593617,-0.31117 1.979567,-0.86984 1.533897,-2.49329 3.722447,-4.04506 2.188537,-1.55177 4.254517,-0.87664 5.759387,-2.67073 1.42707,-1.70134 0.0568,-2.89624 1.845987,-5.12365 1.48399,-1.84741 3.32913,-1.91671 4.21309,-4.58353 0.67767,-2.04448 -1.06069,-2.53727 -0.27873,-5.4538 0.78196,-2.91653 2.535127,-2.20498 2.535127,-5.1505 0,-2.47781 -1.805367,-2.94184 -2.346137,-5.30117 -0.6426,-2.80358 0.56639,-4.41201 -0.31116,-6.4256 -0.90242,-2.07065 -2.46839,-1.8055 -3.98022,-3.92289 -1.498427,-2.09864 -0.645237,-3.54689 -2.090327,-5.25925 -1.37899,-1.63404 -3.0677,-0.74449 -5.524547,-2.445377 -2.45684,-1.7009 -1.42412,-3.02381 -3.991677,-4.03557 -2.7801,-1.095517 -2.03952,0.93374 -5.646717,0.0553 -3.80916,-0.927567 -3.09419,-2.405967 -5.658177,-2.512197 -2.76961,-0.11475 -2.47977,1.71235 -5.303127,2.390017 -3.08053,0.7394 -4.347117,-0.909007 -6.559237,0.0783 -2.29911,1.02613 -1.86165,2.95966 -3.835107,4.26845 -2.01206,1.334377 -4.164537,0.626607 -5.669647,2.168617 -1.79064,1.83453 -0.59884,2.85687 -1.77917,4.99001 -1.27914,2.31169 -3.517557,1.97859 -4.512787,4.27041 -1.11102,2.55844 0.58769,3.04701 0.12217,5.725 -0.4843,2.78597 -2.53568,3.39757 -2.54266,5.80132 z"
         style="display:inline;fill:#808080;fill-opacity:1;stroke:none;stroke-width:1.05499995;stroke-linecap:butt;stroke-linejoin:miter;stroke-miterlimit:4;stroke-dasharray:none;stroke-opacity:1"
         inkscape:export-filename="/home/paodweb/Documents/tri/challenge/images/sticker-deltri-bonus-photo.png"
         inkscape:export-xdpi="96"
         inkscape:export-ydpi="96" />
      <text
         xml:space="preserve"
         style="font-style:normal;font-weight:normal;font-size:10.01142502px;line-height:1.25;font-family:sans-serif;letter-spacing:0px;word-spacing:0px;display:inline;fill:#000000;fill-opacity:1;stroke:none;stroke-width:0.25028566"
         x="39.919598"
         y="126.04987"
         id="text971"
         inkscape:export-filename="/home/paodweb/Documents/tri/challenge/images/sticker-deltri-bonus-photo.png"
         inkscape:export-xdpi="96"
         inkscape:export-ydpi="96"><tspan
           id="tspan979"
           sodipodi:role="line"
           x="39.919598"
           y="126.04987"
           style="font-style:normal;font-variant:normal;font-weight:bold;font-stretch:normal;font-size:11.06164265px;line-height:1.25;font-family:Padauk;-inkscape-font-specification:'Padauk Bold';text-align:center;text-anchor:middle;fill:#ffffff;fill-opacity:1;stroke-width:0.25028566"><tspan
             style="font-style:normal;font-variant:normal;font-weight:bold;font-stretch:normal;font-size:11.06164265px;line-height:1.25;font-family:Padauk;-inkscape-font-specification:'Padauk Bold';text-align:center;text-anchor:middle;fill:#ffffff;fill-opacity:1;stroke-width:0.25028566"
             id="tspan989"
             dy="0">BONUS</tspan></tspan></text>
      <text
         inkscape:export-ydpi="96"
         inkscape:export-xdpi="96"
         inkscape:export-filename="/home/paodweb/Documents/tri/challenge/images/sticker-deltri-bonus-photo.png"
         id="text985"
         y="135.40912"
         x="39.953976"
         style="font-style:normal;font-weight:normal;font-size:5.76351976px;line-height:1.25;font-family:sans-serif;letter-spacing:0px;word-spacing:0px;display:inline;fill:#000000;fill-opacity:1;stroke:none;stroke-width:0.144088"
         xml:space="preserve"><tspan
           style="font-style:normal;font-variant:normal;font-weight:bold;font-stretch:normal;font-size:6.36812401px;line-height:1.25;font-family:Padauk;-inkscape-font-specification:'Padauk Bold';text-align:center;text-anchor:middle;fill:#ffffff;fill-opacity:1;stroke-width:0.144088"
           y="135.40912"
           x="39.953976"
           sodipodi:role="line"
           id="tspan983">PHOTO</tspan></text>
      <circle
         r="24.254707"
         cy="122.58032"
         cx="40.000614"
         id="circle973"
         style="display:inline;opacity:1;fill:none;fill-opacity:1;stroke:#ffffff;stroke-width:1.35500002;stroke-linecap:round;stroke-linejoin:round;stroke-miterlimit:4;stroke-dasharray:none;stroke-opacity:1"
         inkscape:export-filename="/home/paodweb/Documents/tri/challenge/images/sticker-deltri-bonus-photo.png"
         inkscape:export-xdpi="96"
         inkscape:export-ydpi="96" />
      <text
         id="text977"
         y="112.60616"
         x="30.472515"
         style="font-style:normal;font-variant:normal;font-weight:normal;font-stretch:normal;font-size:3.88902044px;line-height:1.25;font-family:'Mukti Narrow';-inkscape-font-specification:'Mukti Narrow';letter-spacing:0px;word-spacing:0px;fill:#ffffff;fill-opacity:1;stroke:none;stroke-width:0.09722551"
         xml:space="preserve"
         inkscape:export-filename="/home/paodweb/Documents/tri/challenge/images/sticker-deltri-bonus-photo.png"
         inkscape:export-xdpi="96"
         inkscape:export-ydpi="96"><tspan
           style="font-style:normal;font-variant:normal;font-weight:bold;font-stretch:normal;font-size:3.6297524px;font-family:Padauk;-inkscape-font-specification:'Padauk Bold';fill:#ffffff;fill-opacity:1;stroke-width:0.09722551"
           y="112.60616"
           x="30.472515"
           id="tspan975"
           sodipodi:role="line">200 POINTS</tspan></text>
    </g>
  </g>
</svg>
