<?xml version="1.0" encoding="UTF-8" standalone="no"?>
<!-- Created with Inkscape (http://www.inkscape.org/) -->

<svg
   xmlns:dc="http://purl.org/dc/elements/1.1/"
   xmlns:cc="http://creativecommons.org/ns#"
   xmlns:rdf="http://www.w3.org/1999/02/22-rdf-syntax-ns#"
   xmlns:svg="http://www.w3.org/2000/svg"
   xmlns="http://www.w3.org/2000/svg"
   xmlns:sodipodi="http://sodipodi.sourceforge.net/DTD/sodipodi-0.dtd"
   xmlns:inkscape="http://www.inkscape.org/namespaces/inkscape"
   width="59.628578mm"
   height="59.620678mm"
   viewBox="0 0 59.628578 59.620678"
   version="1.1"
   id="svg1586"
   inkscape:version="0.92.3 (2405546, 2018-03-11)"
   sodipodi:docname="deltri-sticker-triathlon-m.svg">
  <defs
     id="defs1580" />
  <sodipodi:namedview
     id="base"
     pagecolor="#ffffff"
     bordercolor="#666666"
     borderopacity="1.0"
     inkscape:pageopacity="0.0"
     inkscape:pageshadow="2"
     inkscape:zoom="1.4"
     inkscape:cx="110.17323"
     inkscape:cy="-15.376292"
     inkscape:document-units="mm"
     inkscape:current-layer="layer1"
     showgrid="false"
     fit-margin-top="0"
     fit-margin-left="0"
     fit-margin-right="0"
     fit-margin-bottom="0"
     inkscape:window-width="1920"
     inkscape:window-height="1052"
     inkscape:window-x="1920"
     inkscape:window-y="0"
     inkscape:window-maximized="1" />
  <metadata
     id="metadata1583">
    <rdf:RDF>
      <cc:Work
         rdf:about="">
        <dc:format>image/svg+xml</dc:format>
        <dc:type
           rdf:resource="http://purl.org/dc/dcmitype/StillImage" />
        <dc:title></dc:title>
      </cc:Work>
    </rdf:RDF>
  </metadata>
  <g
     inkscape:label="Calque 1"
     inkscape:groupmode="layer"
     id="layer1"
     transform="translate(257.68811,66.04613)">
    <g
       transform="translate(-505.99955,-78.4917)"
       style="display:inline"
       id="g966">
      <path
         inkscape:export-ydpi="96"
         inkscape:export-xdpi="96"
         inkscape:export-filename="/home/paodweb/Documents/tri/challenge/images/sticker-deltri-l.png"
         style="display:inline;fill:#4caf50;fill-opacity:1;stroke:none;stroke-width:1.05499995;stroke-linecap:butt;stroke-linejoin:miter;stroke-miterlimit:4;stroke-dasharray:none;stroke-opacity:1"
         d="m 248.31146,42.142838 c -0.007,2.594916 1.95936,2.851708 2.53119,5.74989 0.5238,2.654755 -1.111,2.788966 -0.22141,5.390911 0.77336,2.261981 2.70457,2.099805 3.94583,3.756831 1.65563,2.210204 1.10897,4.446085 2.43588,5.915952 1.59936,1.771673 3.62587,1.072326 5.65818,2.445382 1.99649,1.348855 1.58585,3.24652 4.01264,4.178699 2.37429,0.912006 3.63143,-0.545254 5.93692,0.01146 2.30549,0.556717 3.06138,2.336644 5.30313,2.46831 2.25087,0.132201 3.37765,-1.96881 5.63526,-2.424418 2.25761,-0.455608 4.1237,0.774149 6.59362,-0.311162 1.97957,-0.869843 1.5339,-2.493296 3.72245,-4.045062 2.18854,-1.551765 4.25452,-0.876643 5.75939,-2.67073 1.42707,-1.701337 0.0568,-2.896241 1.84599,-5.12364 1.48399,-1.847412 3.32913,-1.916711 4.21309,-4.583537 0.67767,-2.044477 -1.06069,-2.537262 -0.27873,-5.453792 0.78196,-2.91653 2.53513,-2.204974 2.53513,-5.150502 0,-2.477807 -1.80537,-2.941834 -2.34614,-5.301164 -0.6426,-2.80358 0.56639,-4.412002 -0.31116,-6.425594 -0.90242,-2.070646 -2.46839,-1.805503 -3.98022,-3.922894 -1.49843,-2.098629 -0.64524,-3.546885 -2.09033,-5.259241 -1.37899,-1.634042 -3.0677,-0.744489 -5.52455,-2.445382 -2.45684,-1.700893 -1.42412,-3.023809 -3.99168,-4.035568 -2.7801,-1.095514 -2.03952,0.933742 -5.64672,0.05535 -3.80916,-0.92757 -3.09419,-2.40597 -5.65818,-2.512199 -2.76961,-0.114748 -2.47977,1.712358 -5.30313,2.390028 -3.08053,0.739396 -4.34712,-0.909017 -6.55924,0.07828 -2.29911,1.026125 -1.86165,2.959654 -3.83511,4.268444 -2.01206,1.334381 -4.16454,0.62661 -5.66965,2.168615 -1.79064,1.834527 -0.59884,2.85687 -1.77917,4.990005 -1.27914,2.311695 -3.51756,1.978597 -4.51279,4.270413 -1.11102,2.558441 0.58769,3.047007 0.12217,5.724994 -0.4843,2.785966 -2.53568,3.397566 -2.54266,5.801312 z"
         id="path4637"
         inkscape:connector-curvature="0"
         sodipodi:nodetypes="ssssssszszszssszsssssssssssssssss" />
      <text
         inkscape:export-ydpi="96"
         inkscape:export-xdpi="96"
         inkscape:export-filename="/home/paodweb/Documents/tri/challenge/images/sticker-deltri-l.png"
         xml:space="preserve"
         style="font-style:normal;font-weight:normal;font-size:10.06328964px;line-height:1.25;font-family:sans-serif;letter-spacing:0px;word-spacing:0px;display:inline;fill:#000000;fill-opacity:1;stroke:none;stroke-width:0.25158224"
         x="259.44574"
         y="44.394615"
         id="text4547"><tspan
           sodipodi:role="line"
           id="tspan4545"
           x="259.44574"
           y="44.394615"
           style="font-style:normal;font-variant:normal;font-weight:bold;font-stretch:normal;font-size:24.15189552px;line-height:1.25;font-family:Padauk;-inkscape-font-specification:'Padauk Bold';fill:#ffffff;fill-opacity:1;stroke-width:0.25158224">100</tspan></text>
      <circle
         inkscape:export-ydpi="96"
         inkscape:export-xdpi="96"
         inkscape:export-filename="/home/paodweb/Documents/tri/challenge/images/sticker-deltri-l.png"
         r="24.254707"
         cy="42.241436"
         cx="278.12573"
         id="circle4645"
         style="display:inline;opacity:1;fill:none;fill-opacity:1;stroke:#ffffff;stroke-width:1.35500002;stroke-linecap:round;stroke-linejoin:round;stroke-miterlimit:4;stroke-dasharray:none;stroke-opacity:1" />
      <text
         inkscape:export-ydpi="96"
         inkscape:export-xdpi="96"
         inkscape:export-filename="/home/paodweb/Documents/tri/challenge/images/sticker-deltri-l.png"
         xml:space="preserve"
         style="font-style:normal;font-variant:normal;font-weight:normal;font-stretch:normal;font-size:7.18130541px;line-height:1.25;font-family:'Mukti Narrow';-inkscape-font-specification:'Mukti Narrow';letter-spacing:0px;word-spacing:0px;fill:#ffffff;fill-opacity:1;stroke:none;stroke-width:0.17953263"
         x="267.08026"
         y="56.513851"
         id="text4672"><tspan
           sodipodi:role="line"
           id="tspan4670"
           x="267.08026"
           y="56.513851"
           style="font-style:normal;font-variant:normal;font-weight:bold;font-stretch:normal;font-size:6.70255184px;font-family:Padauk;-inkscape-font-specification:'Padauk Bold';fill:#ffffff;fill-opacity:1;stroke-width:0.17953263">POINTS</tspan></text>
    </g>
  </g>
</svg>
